<?xml version="1.0" encoding="iso-8859-1"?>
<!-- Generator: Adobe Illustrator 19.0.0, SVG Export Plug-In . SVG Version: 6.00 Build 0)  -->
<svg version="1.1" id="Capa_1" xmlns="http://www.w3.org/2000/svg" xmlns:xlink="http://www.w3.org/1999/xlink" x="0px" y="0px"
	 viewBox="0 0 512 512" style="enable-background:new 0 0 512 512;" xml:space="preserve">
<g>
	<g>
		<path d="M125.97,87.981H30c-16.542,0-30,13.458-30,30v95.97c0,16.542,13.458,30,30,30h95.97c16.542,0,30-13.458,30-30v-95.97
			C155.97,101.439,142.512,87.981,125.97,87.981z M125.97,213.951H30v-95.97h95.97l0.02,95.969
			C125.99,213.95,125.983,213.951,125.97,213.951z"/>
	</g>
</g>
<g>
	<g>
		<path d="M482,87.981H208.015c-16.542,0-30,13.458-30,30v95.97c0,16.542,13.458,30,30,30H482c16.542,0,30-13.458,30-30v-95.97
			C512,101.439,498.542,87.981,482,87.981z M482,213.951H208.015v-95.97H482l0.019,95.969
			C482.019,213.95,482.013,213.951,482,213.951z"/>
	</g>
</g>
<g>
	<g>
		<path d="M303.985,268.049H30c-16.542,0-30,13.458-30,30v95.97c0,16.542,13.458,30,30,30h273.985c16.542,0,30-13.458,30-30v-95.97
			C333.985,281.507,320.527,268.049,303.985,268.049z M303.985,394.019H30v-95.97h273.985l0.019,95.969
			C304.004,394.018,303.998,394.019,303.985,394.019z"/>
	</g>
</g>
<g>
	<g>
		<path d="M482,268.049h-95.97c-16.542,0-30,13.458-30,30v95.97c0,16.542,13.458,30,30,30H482c16.542,0,30-13.458,30-30v-95.97
			C512,281.507,498.542,268.049,482,268.049z M482,394.019h-95.97v-95.97H482l0.019,95.969
			C482.019,394.018,482.013,394.019,482,394.019z"/>
	</g>
</g>
<g>
</g>
<g>
</g>
<g>
</g>
<g>
</g>
<g>
</g>
<g>
</g>
<g>
</g>
<g>
</g>
<g>
</g>
<g>
</g>
<g>
</g>
<g>
</g>
<g>
</g>
<g>
</g>
<g>
</g>
</svg>
